<?xml version="1.0" encoding="UTF-8" standalone="no"?>
<!-- Created with Inkscape (http://www.inkscape.org/) -->

<svg
   xmlns:dc="http://purl.org/dc/elements/1.1/"
   xmlns:cc="http://creativecommons.org/ns#"
   xmlns:rdf="http://www.w3.org/1999/02/22-rdf-syntax-ns#"
   xmlns:svg="http://www.w3.org/2000/svg"
   xmlns="http://www.w3.org/2000/svg"
   xmlns:sodipodi="http://sodipodi.sourceforge.net/DTD/sodipodi-0.dtd"
   xmlns:inkscape="http://www.inkscape.org/namespaces/inkscape"
   width="1024"
   height="640"
   viewBox="0 0 1024 640.00002"
   id="svg2"
   version="1.1"
   inkscape:version="0.91 r13725"
   sodipodi:docname="logomix.svg"
   inkscape:export-filename="C:\Users\user\Documents\firestarter-site\www\assets\logomix.png"
   inkscape:export-xdpi="90"
   inkscape:export-ydpi="90">
  <defs
     id="defs4">
    <linearGradient
       id="linearGradient-1"
       y2="0.92886806"
       x2="1.0083333"
       y1="0.17026672"
       x1="-0.034817707">
      <stop
         id="stop4145"
         offset="0%"
         stop-opacity="0.1"
         stop-color="#FFFFFF" />
      <stop
         id="stop4147"
         offset="100%"
         stop-opacity="0"
         stop-color="#FFFFFF" />
    </linearGradient>
    <path
       id="path-2"
       d="m 95.798492,33.624619 c -0.212566,-1.263545 -1.113653,-2.30396 -2.33698,-2.698331 -1.223327,-0.394372 -2.565252,-0.07705 -3.480301,0.822978 L 72.272722,49.565122 58.242808,23.054446 c -0.562616,-1.135491 -1.723317,-1.85432 -2.994189,-1.85432 -1.270873,0 -2.431573,0.718829 -2.994189,1.85432 L 44.640635,37.545813 25.392278,1.9141002 c -1.539869,-2.8982732 -5.90283,-2.13108322 -6.41612,1.1081634 L 0.4977353,121.16952 50.030175,148.8736 c 3.116993,1.705 6.892153,1.705 10.009146,0 L 109.9995,121.16952 95.798492,33.624619 Z"
       inkscape:connector-curvature="0" />
    <path
       id="path-2-9"
       d="m 95.798492,33.624619 c -0.212566,-1.263545 -1.113653,-2.30396 -2.33698,-2.698331 -1.223327,-0.394372 -2.565252,-0.07705 -3.480301,0.822978 L 72.272722,49.565122 58.242808,23.054446 c -0.562616,-1.135491 -1.723317,-1.85432 -2.994189,-1.85432 -1.270873,0 -2.431573,0.718829 -2.994189,1.85432 L 44.640635,37.545813 25.392278,1.9141002 c -1.539869,-2.8982732 -5.90283,-2.13108322 -6.41612,1.1081634 L 0.4977353,121.16952 50.030175,148.8736 c 3.116993,1.705 6.892153,1.705 10.009146,0 L 109.9995,121.16952 95.798492,33.624619 Z"
       inkscape:connector-curvature="0" />
    <path
       id="path-2-7"
       d="m 95.798492,33.624619 c -0.212566,-1.263545 -1.113653,-2.30396 -2.33698,-2.698331 -1.223327,-0.394372 -2.565252,-0.07705 -3.480301,0.822978 L 72.272722,49.565122 58.242808,23.054446 c -0.562616,-1.135491 -1.723317,-1.85432 -2.994189,-1.85432 -1.270873,0 -2.431573,0.718829 -2.994189,1.85432 L 44.640635,37.545813 25.392278,1.9141002 c -1.539869,-2.8982732 -5.90283,-2.13108322 -6.41612,1.1081634 L 0.4977353,121.16952 50.030175,148.8736 c 3.116993,1.705 6.892153,1.705 10.009146,0 L 109.9995,121.16952 95.798492,33.624619 Z"
       inkscape:connector-curvature="0" />
    <path
       id="path-2-6"
       d="m 95.798492,33.624619 c -0.212566,-1.263545 -1.113653,-2.30396 -2.33698,-2.698331 -1.223327,-0.394372 -2.565252,-0.07705 -3.480301,0.822978 L 72.272722,49.565122 58.242808,23.054446 c -0.562616,-1.135491 -1.723317,-1.85432 -2.994189,-1.85432 -1.270873,0 -2.431573,0.718829 -2.994189,1.85432 L 44.640635,37.545813 25.392278,1.9141002 c -1.539869,-2.8982732 -5.90283,-2.13108322 -6.41612,1.1081634 L 0.4977353,121.16952 50.030175,148.8736 c 3.116993,1.705 6.892153,1.705 10.009146,0 L 109.9995,121.16952 95.798492,33.624619 Z"
       inkscape:connector-curvature="0" />
    <path
       id="path-2-1"
       d="m 95.798492,33.624619 c -0.212566,-1.263545 -1.113653,-2.30396 -2.33698,-2.698331 -1.223327,-0.394372 -2.565252,-0.07705 -3.480301,0.822978 L 72.272722,49.565122 58.242808,23.054446 c -0.562616,-1.135491 -1.723317,-1.85432 -2.994189,-1.85432 -1.270873,0 -2.431573,0.718829 -2.994189,1.85432 L 44.640635,37.545813 25.392278,1.9141002 c -1.539869,-2.8982732 -5.90283,-2.13108322 -6.41612,1.1081634 L 0.4977353,121.16952 50.030175,148.8736 c 3.116993,1.705 6.892153,1.705 10.009146,0 L 109.9995,121.16952 95.798492,33.624619 Z"
       inkscape:connector-curvature="0" />
    <clipPath
       id="prefix__clip0">
      <path
         id="path4578"
         d="m 0,0 54,0 0,32.4 -54,0 z"
         inkscape:connector-curvature="0"
         style="fill:#ffffff" />
    </clipPath>
    <path
       id="path-2-13"
       d="m 95.798492,33.624619 c -0.212566,-1.263545 -1.113653,-2.30396 -2.33698,-2.698331 -1.223327,-0.394372 -2.565252,-0.07705 -3.480301,0.822978 L 72.272722,49.565122 58.242808,23.054446 c -0.562616,-1.135491 -1.723317,-1.85432 -2.994189,-1.85432 -1.270873,0 -2.431573,0.718829 -2.994189,1.85432 L 44.640635,37.545813 25.392278,1.9141002 c -1.539869,-2.8982732 -5.90283,-2.13108322 -6.41612,1.1081634 L 0.4977353,121.16952 50.030175,148.8736 c 3.116993,1.705 6.892153,1.705 10.009146,0 L 109.9995,121.16952 95.798492,33.624619 Z"
       inkscape:connector-curvature="0" />
  </defs>
  <sodipodi:namedview
     id="base"
     pagecolor="#ffffff"
     bordercolor="#666666"
     borderopacity="1.0"
     inkscape:pageopacity="0.0"
     inkscape:pageshadow="2"
     inkscape:zoom="0.7"
     inkscape:cx="373.43888"
     inkscape:cy="274.79956"
     inkscape:document-units="px"
     inkscape:current-layer="layer1"
     showgrid="false"
     inkscape:window-width="1920"
     inkscape:window-height="1017"
     inkscape:window-x="-8"
     inkscape:window-y="-8"
     inkscape:window-maximized="1"
     units="px" />
  <metadata
     id="metadata7">
    <rdf:RDF>
      <cc:Work
         rdf:about="">
        <dc:format>image/svg+xml</dc:format>
        <dc:type
           rdf:resource="http://purl.org/dc/dcmitype/StillImage" />
        <dc:title></dc:title>
      </cc:Work>
    </rdf:RDF>
  </metadata>
  <g
     inkscape:label="Layer 1"
     inkscape:groupmode="layer"
     id="layer1"
     transform="translate(0,-412.36216)">
    <g
       style="fill:none"
       id="g4586"
       transform="matrix(6.1988501,0,0,6.1988501,25.146465,564.84764)">
      <g
         id="g4571"
         clip-path="url(#prefix__clip0)">
        <path
           id="path4573"
           d="M 27,0 C 19.8,0 15.3,3.6 13.5,10.8 16.2,7.2 19.35,5.85 22.95,6.75 25.004,7.263 26.472,8.754 28.097,10.403 30.744,13.09 33.808,16.2 40.5,16.2 47.7,16.2 52.2,12.6 54,5.4 51.3,9 48.15,10.35 44.55,9.45 42.496,8.937 41.028,7.446 39.403,5.797 36.756,3.11 33.692,0 27,0 Z M 13.5,16.2 C 6.3,16.2 1.8,19.8 0,27 c 2.7,-3.6 5.85,-4.95 9.45,-4.05 2.054,0.514 3.522,2.004 5.147,3.653 2.647,2.687 5.711,5.797 12.403,5.797 7.2,0 11.7,-3.6 13.5,-10.8 -2.7,3.6 -5.85,4.95 -9.45,4.05 C 28.996,25.137 27.528,23.646 25.903,21.997 23.256,19.31 20.192,16.2 13.5,16.2 Z"
           inkscape:connector-curvature="0"
           style="clip-rule:evenodd;fill:#38bdf8;fill-rule:evenodd" />
      </g>
    </g>
    <text
       style="font-style:normal;font-weight:900;font-size:158.1778717px;font-family:'Font Awesome 6 Free';text-anchor:start;fill:#ff8040;stroke:none"
       font-size="48px"
       font-style="normal"
       font-weight="900"
       text-decoration="normal"
       x="453.4332"
       y="631.19067"
       dominant-baseline="central"
       id="text4624"
       transform="scale(0.97155521,1.0292776)" />
    <flowRoot
       style="font-style:normal;font-weight:normal;font-size:45px;line-height:125%;font-family:sans-serif;letter-spacing:0px;word-spacing:0px;fill:#000000;fill-opacity:1;stroke:none;stroke-width:1px;stroke-linecap:butt;stroke-linejoin:miter;stroke-opacity:1"
       id="flowRoot4656"
       xml:space="preserve"
       transform="matrix(3.2016361,0,0,3.3918528,418.12394,544.52297)"><flowRegion
         id="flowRegion4658"><rect
           y="2.2857139"
           x="315.71429"
           height="182.14285"
           width="393.57144"
           id="rect4660" /></flowRegion><flowPara
         id="flowPara4662"></flowPara></flowRoot>    <path
       style="fill:#ff8040;stroke:none"
       inkscape:connector-curvature="0"
       d="m 743.23704,459.99042 18.887,-25.14318 c 4.72158,-6.37438 12.27641,-10.15175 20.18531,-10.15175 13.81112,0 25.1431,11.33216 25.1431,25.14322 l 0,26.20559 c 0,15.46361 6.37443,30.33705 17.58852,40.96092 l 99.98248,95.37887 c 57.60524,55.00811 90.18495,131.26398 90.18495,210.94312 0,113.67551 -92.07355,205.74939 -205.74904,205.74939 l -20.89368,0 c -125.12583,0 -226.64283,-101.51738 -226.64283,-226.64317 l 0,-4.4856 c 0,-57.605 22.90041,-112.84915 63.62528,-153.57407 l 4.13152,-4.13148 c 4.95781,-4.9578 11.8042,-7.79086 18.88679,-7.79086 14.75552,0 26.67781,11.92234 26.67781,26.67777 l 0,105.53054 c 0,41.66914 33.8783,75.54773 75.5476,75.54773 41.66932,0 75.5476,-33.87859 75.5476,-75.54773 l 0,-4.60369 c 0,-21.24774 -8.49919,-41.66921 -23.49049,-56.66069 l -45.56479,-45.56464 c -28.33021,-28.33036 -44.26611,-66.93048 -44.26611,-107.06513 0,-32.69795 10.62376,-64.68764 30.21898,-90.77516 z"
       id="path4666" />
    <g
       transform="matrix(8.785758,0,0,8.7857582,236.48612,541.09271)"
       id="g4763">
      <path
         style="fill:#ffa000"
         inkscape:connector-curvature="0"
         d="m 19.62,11.558 -3.203,2.98 -2.972,-5.995 1.538,-3.448 c 0.4,-0.7 1.024,-0.692 1.414,0 z"
         id="path4749" />
      <path
         style="fill:#f57f17"
         inkscape:connector-curvature="0"
         d="m 13.445,8.543 2.972,5.995 -11.97,11.135 z"
         id="path4751" />
      <path
         style="fill:#ffca28"
         inkscape:connector-curvature="0"
         d="m 23.123,7.003 c 0.572,-0.55 1.164,-0.362 1.315,0.417 l 3.116,18.105 -10.328,6.2 c -0.36,0.2 -1.32,0.286 -1.32,0.286 0,0 -0.874,-0.104 -1.207,-0.3 L 4.447,25.673 Z"
         id="path4753" />
      <path
         style="fill:#ffa000"
         inkscape:connector-curvature="0"
         d="M 13.445,8.543 4.448,25.673 8.455,0.638 c 0.148,-0.78 0.592,-0.855 0.988,-0.167 z"
         id="path4755" />
    </g>
    <g
       id="Page-1"
       style="fill:none;fill-rule:evenodd;stroke:none;stroke-width:1"
       transform="matrix(2.0476981,0,0,2.0476981,64.506296,706.22428)">
      <g
         transform="translate(-247,-138)"
         id="Black-Next.js"
         style="fill:#000000;fill-rule:nonzero">
        <g
           transform="translate(247,138)"
           id="next-black">
          <g
             id="EXT-+-Type-something">
            <path
               id="EXT"
               d="m 48.942196,32.632006 38.958962,0 0,3.081636 -35.387723,0 0,23.193368 33.277446,0 0,3.081637 -33.277446,0 0,25.464047 35.793546,0 0,3.081636 -39.364785,0 0,-57.902324 z m 42.449037,0 4.139389,0 18.343178,25.464047 18.749,-25.464047 25.5017,-32.34519619 -41.89693,60.48540119 21.58976,29.762119 -4.30172,0 -19.64181,-27.085961 -19.722975,27.085961 -4.220553,0 L 111.68236,60.772211 91.391233,32.632006 Z m 47.968217,3.081636 0,-3.081636 44.39699,0 0,3.081636 -20.45346,0 0,54.820688 -3.57124,0 0,-54.820688 -20.37229,0 z"
               inkscape:connector-curvature="0" />
            <polygon
               points="66.223578,124.30309 40.785176,90.53433 3.9364909,37.011173 3.7741619,90.53433 0.20292365,90.53433 0.20292365,32.632006 4.6669714,32.632006 "
               id="Type-something" />
          </g>
          <path
             id=".JS"
             d="m 183.39662,86.522722 c 0.73832,0 1.27685,-0.562614 1.27685,-1.289685 0,-0.727071 -0.53853,-1.289686 -1.27685,-1.289686 -0.72963,0 -1.27685,0.562615 -1.27685,1.289686 0,0.727071 0.54722,1.289685 1.27685,1.289685 z m 3.50917,-3.392999 c 0,2.146592 1.55481,3.5488 3.82187,3.5488 2.41473,0 3.87399,-1.445486 3.87399,-3.955613 l 0,-8.837377 -1.94568,0 0,8.828721 c 0,1.393553 -0.70357,2.137936 -1.94568,2.137936 -1.11182,0 -1.86751,-0.692449 -1.89356,-1.722467 l -1.91094,0 z m 10.24087,-0.112522 c 0.13898,2.233147 2.00648,3.661322 4.78603,3.661322 2.97063,0 4.82945,-1.49742 4.82945,-3.886368 0,-1.878267 -1.0597,-2.91694 -3.63078,-3.514177 l -1.38108,-0.337569 c -1.63298,-0.380847 -2.29312,-0.891528 -2.29312,-1.783055 0,-1.12523 1.02495,-1.860956 2.56239,-1.860956 1.45926,0 2.46684,0.718416 2.64925,1.869611 l 1.89356,0 c -0.11292,-2.103313 -1.97174,-3.583422 -4.51676,-3.583422 -2.73611,0 -4.56018,1.480109 -4.56018,3.704601 0,1.834989 1.03364,2.925595 3.30071,3.453588 l 1.6156,0.389502 c 1.65904,0.389503 2.38867,0.960773 2.38867,1.91289 0,1.107918 -1.14656,1.912889 -2.71005,1.912889 -1.67641,0 -2.84034,-0.753037 -3.00538,-1.938856 l -1.92831,0 z"
             inkscape:connector-curvature="0" />
        </g>
      </g>
    </g>
  </g>
  <style
     id="style4213">
@import url(&quot;https://fonts.googleapis.com/css?family=Montez|Lobster|Josefin+Sans|Shadows+Into+Light|Pacifico|Amatic+SC:700|Orbitron:400,900|Rokkitt|Righteous|Dancing+Script:700|Bangers|Chewy|Sigmar+One|Architects+Daughter|Abril+Fatface|Covered+By+Your+Grace|Kaushan+Script|Gloria+Hallelujah|Satisfy|Lobster+Two:700|Comfortaa:700|Cinzel|Courgette|Annie+Use+Your+Telescope|Baloo|Bowlby+One+SC|Bungee+Inline|Cabin+Sketch|Caveat|Contrail+One|Damion|Economica|Fascinate+Inline|Faster+One|Fredericka+the+Great|Gabriela|Just+Another+Hand|Kodchasan|Love+Ya+Like+A+Sister|Megrim|Monoton|Mouse+Memoirs|Podkova|Pompiere|Quicksand|Reenie+Beanie|Rokkitt|Six+Caps|Source+Sans+Pro|Special+Elite|Spicy+Rice|VT323|Wire+One&quot;);
@import url(&quot;https://cdnjs.cloudflare.com/ajax/libs/font-awesome/6.1.0/css/all.min.css&quot;);
</style>
  <style
     id="style4334">
@import url(&quot;https://fonts.googleapis.com/css?family=Montez|Lobster|Josefin+Sans|Shadows+Into+Light|Pacifico|Amatic+SC:700|Orbitron:400,900|Rokkitt|Righteous|Dancing+Script:700|Bangers|Chewy|Sigmar+One|Architects+Daughter|Abril+Fatface|Covered+By+Your+Grace|Kaushan+Script|Gloria+Hallelujah|Satisfy|Lobster+Two:700|Comfortaa:700|Cinzel|Courgette|Annie+Use+Your+Telescope|Baloo|Bowlby+One+SC|Bungee+Inline|Cabin+Sketch|Caveat|Contrail+One|Damion|Economica|Fascinate+Inline|Faster+One|Fredericka+the+Great|Gabriela|Just+Another+Hand|Kodchasan|Love+Ya+Like+A+Sister|Megrim|Monoton|Mouse+Memoirs|Podkova|Pompiere|Quicksand|Reenie+Beanie|Rokkitt|Six+Caps|Source+Sans+Pro|Special+Elite|Spicy+Rice|VT323|Wire+One&quot;);
@import url(&quot;https://cdnjs.cloudflare.com/ajax/libs/font-awesome/6.1.0/css/all.min.css&quot;);
</style>
  <style
     id="style4618">
@import url(&quot;https://fonts.googleapis.com/css?family=Montez|Lobster|Josefin+Sans|Shadows+Into+Light|Pacifico|Amatic+SC:700|Orbitron:400,900|Rokkitt|Righteous|Dancing+Script:700|Bangers|Chewy|Sigmar+One|Architects+Daughter|Abril+Fatface|Covered+By+Your+Grace|Kaushan+Script|Gloria+Hallelujah|Satisfy|Lobster+Two:700|Comfortaa:700|Cinzel|Courgette|Annie+Use+Your+Telescope|Baloo|Bowlby+One+SC|Bungee+Inline|Cabin+Sketch|Caveat|Contrail+One|Damion|Economica|Fascinate+Inline|Faster+One|Fredericka+the+Great|Gabriela|Just+Another+Hand|Kodchasan|Love+Ya+Like+A+Sister|Megrim|Monoton|Mouse+Memoirs|Podkova|Pompiere|Quicksand|Reenie+Beanie|Rokkitt|Six+Caps|Source+Sans+Pro|Special+Elite|Spicy+Rice|VT323|Wire+One&quot;);
@import url(&quot;https://cdnjs.cloudflare.com/ajax/libs/font-awesome/6.1.0/css/all.min.css&quot;);
</style>
  <style
     id="style4635">
@import url(&quot;https://fonts.googleapis.com/css?family=Montez|Lobster|Josefin+Sans|Shadows+Into+Light|Pacifico|Amatic+SC:700|Orbitron:400,900|Rokkitt|Righteous|Dancing+Script:700|Bangers|Chewy|Sigmar+One|Architects+Daughter|Abril+Fatface|Covered+By+Your+Grace|Kaushan+Script|Gloria+Hallelujah|Satisfy|Lobster+Two:700|Comfortaa:700|Cinzel|Courgette|Annie+Use+Your+Telescope|Baloo|Bowlby+One+SC|Bungee+Inline|Cabin+Sketch|Caveat|Contrail+One|Damion|Economica|Fascinate+Inline|Faster+One|Fredericka+the+Great|Gabriela|Just+Another+Hand|Kodchasan|Love+Ya+Like+A+Sister|Megrim|Monoton|Mouse+Memoirs|Podkova|Pompiere|Quicksand|Reenie+Beanie|Rokkitt|Six+Caps|Source+Sans+Pro|Special+Elite|Spicy+Rice|VT323|Wire+One&quot;);
@import url(&quot;https://cdnjs.cloudflare.com/ajax/libs/font-awesome/6.1.0/css/all.min.css&quot;);
</style>
</svg>
